<?xml version="1.0" encoding="UTF-8"?>
<svg xmlns="http://www.w3.org/2000/svg" xmlns:xlink="http://www.w3.org/1999/xlink" width="227.755" height="57.68" viewBox="0 0 227.755 57.68">
<defs>
<g>
<g id="glyph-0-0">
</g>
<g id="glyph-0-1">
<path d="M 7.671875 -6.6875 C 7.671875 -6.765625 7.609375 -6.8125 7.53125 -6.8125 C 7.28125 -6.8125 6.984375 -6.78125 6.71875 -6.78125 C 6.390625 -6.78125 6.046875 -6.8125 5.734375 -6.8125 C 5.671875 -6.8125 5.546875 -6.8125 5.546875 -6.625 C 5.546875 -6.515625 5.625 -6.5 5.703125 -6.5 C 5.96875 -6.484375 6.15625 -6.375 6.15625 -6.171875 C 6.15625 -6.015625 6.015625 -5.796875 6.015625 -5.796875 L 2.953125 -0.921875 L 2.265625 -6.203125 C 2.265625 -6.375 2.5 -6.5 2.953125 -6.5 C 3.09375 -6.5 3.203125 -6.5 3.203125 -6.703125 C 3.203125 -6.78125 3.125 -6.8125 3.078125 -6.8125 C 2.671875 -6.8125 2.25 -6.78125 1.828125 -6.78125 C 1.65625 -6.78125 1.46875 -6.78125 1.28125 -6.78125 C 1.109375 -6.78125 0.921875 -6.8125 0.75 -6.8125 C 0.671875 -6.8125 0.5625 -6.8125 0.5625 -6.625 C 0.5625 -6.5 0.640625 -6.5 0.8125 -6.5 C 1.359375 -6.5 1.375 -6.40625 1.40625 -6.15625 L 2.1875 -0.015625 C 2.21875 0.1875 2.265625 0.21875 2.390625 0.21875 C 2.546875 0.21875 2.59375 0.171875 2.671875 0.046875 L 6.265625 -5.671875 C 6.75 -6.453125 7.171875 -6.484375 7.53125 -6.5 C 7.65625 -6.515625 7.671875 -6.6875 7.671875 -6.6875 Z M 7.671875 -6.6875 "/>
</g>
<g id="glyph-0-2">
<path d="M 6.4375 -5.515625 C 6.4375 -5.171875 6.28125 -4.484375 5.890625 -4.09375 C 5.625 -3.84375 5.109375 -3.515625 4.203125 -3.515625 L 3.09375 -3.515625 L 3.734375 -6.125 C 3.796875 -6.359375 3.828125 -6.453125 4.015625 -6.484375 C 4.109375 -6.5 4.421875 -6.5 4.625 -6.5 C 5.328125 -6.5 6.4375 -6.5 6.4375 -5.515625 Z M 7.53125 -0.921875 C 7.53125 -1.046875 7.40625 -1.046875 7.40625 -1.046875 C 7.3125 -1.046875 7.296875 -0.984375 7.28125 -0.90625 C 7.03125 -0.171875 6.59375 0 6.375 0 C 6.046875 0 5.96875 -0.21875 5.96875 -0.609375 C 5.96875 -0.921875 6.03125 -1.421875 6.078125 -1.75 C 6.09375 -1.890625 6.109375 -2.078125 6.109375 -2.21875 C 6.109375 -2.984375 5.4375 -3.296875 5.171875 -3.390625 C 6.1875 -3.609375 7.359375 -4.3125 7.359375 -5.3125 C 7.359375 -6.171875 6.46875 -6.8125 5.15625 -6.8125 L 2.328125 -6.8125 C 2.125 -6.8125 2.03125 -6.8125 2.03125 -6.609375 C 2.03125 -6.5 2.125 -6.5 2.3125 -6.5 C 2.3125 -6.5 2.515625 -6.5 2.6875 -6.484375 C 2.875 -6.453125 2.953125 -6.453125 2.953125 -6.3125 C 2.953125 -6.28125 2.953125 -6.25 2.921875 -6.125 L 1.578125 -0.78125 C 1.484375 -0.390625 1.46875 -0.3125 0.671875 -0.3125 C 0.5 -0.3125 0.40625 -0.3125 0.40625 -0.109375 C 0.40625 0 0.546875 0 0.546875 0 L 1.796875 -0.03125 L 3.078125 0 C 3.15625 0 3.265625 0 3.265625 -0.203125 C 3.265625 -0.3125 3.1875 -0.3125 2.984375 -0.3125 C 2.625 -0.3125 2.34375 -0.3125 2.34375 -0.484375 C 2.34375 -0.546875 2.359375 -0.59375 2.375 -0.65625 L 3.03125 -3.296875 L 4.21875 -3.296875 C 5.125 -3.296875 5.296875 -2.734375 5.296875 -2.390625 C 5.296875 -2.25 5.21875 -1.9375 5.15625 -1.703125 C 5.09375 -1.421875 5 -1.0625 5 -0.859375 C 5 0.21875 6.203125 0.21875 6.328125 0.21875 C 7.171875 0.21875 7.53125 -0.78125 7.53125 -0.921875 Z M 7.53125 -0.921875 "/>
</g>
<g id="glyph-0-3">
<path d="M 6.40625 -2.46875 C 6.40625 -2.5 6.375 -2.578125 6.296875 -2.578125 C 6.203125 -2.578125 6.1875 -2.515625 6.125 -2.359375 C 5.78125 -1.453125 5.34375 -0.3125 3.625 -0.3125 L 2.6875 -0.3125 C 2.546875 -0.3125 2.515625 -0.3125 2.46875 -0.3125 C 2.359375 -0.328125 2.328125 -0.34375 2.328125 -0.421875 C 2.328125 -0.453125 2.328125 -0.46875 2.375 -0.640625 L 3.734375 -6.03125 C 3.8125 -6.390625 3.84375 -6.5 4.78125 -6.5 C 5.078125 -6.5 5.15625 -6.5 5.15625 -6.6875 C 5.15625 -6.8125 5.046875 -6.8125 5 -6.8125 L 3.53125 -6.78125 L 2.203125 -6.8125 C 2.140625 -6.8125 2.015625 -6.8125 2.015625 -6.609375 C 2.015625 -6.5 2.109375 -6.5 2.296875 -6.5 C 2.296875 -6.5 2.5 -6.5 2.671875 -6.484375 C 2.84375 -6.453125 2.9375 -6.453125 2.9375 -6.3125 C 2.9375 -6.28125 2.9375 -6.25 2.90625 -6.125 L 1.5625 -0.78125 C 1.46875 -0.390625 1.453125 -0.3125 0.65625 -0.3125 C 0.484375 -0.3125 0.390625 -0.3125 0.390625 -0.109375 C 0.390625 0 0.484375 0 0.65625 0 L 5.28125 0 C 5.515625 0 5.515625 0 5.578125 -0.171875 L 6.375 -2.328125 C 6.40625 -2.4375 6.40625 -2.46875 6.40625 -2.46875 Z M 6.40625 -2.46875 "/>
</g>
<g id="glyph-0-4">
<path d="M 6.453125 -2.390625 C 6.453125 -2.5 6.328125 -2.5 6.328125 -2.5 C 6.265625 -2.5 6.21875 -2.46875 6.203125 -2.390625 C 6.109375 -2.109375 5.875 -1.390625 5.1875 -0.8125 C 4.5 -0.265625 3.875 -0.09375 3.359375 -0.09375 C 2.46875 -0.09375 1.40625 -0.609375 1.40625 -2.15625 C 1.40625 -2.734375 1.609375 -4.34375 2.609375 -5.515625 C 3.21875 -6.21875 4.15625 -6.71875 5.046875 -6.71875 C 6.0625 -6.71875 6.65625 -5.953125 6.65625 -4.796875 C 6.65625 -4.390625 6.625 -4.390625 6.625 -4.28125 C 6.625 -4.1875 6.734375 -4.1875 6.765625 -4.1875 C 6.890625 -4.1875 6.890625 -4.203125 6.953125 -4.390625 L 7.578125 -6.921875 C 7.578125 -6.953125 7.5625 -7.03125 7.46875 -7.03125 C 7.4375 -7.03125 7.421875 -7.015625 7.3125 -6.90625 L 6.625 -6.140625 C 6.53125 -6.28125 6.078125 -7.03125 4.96875 -7.03125 C 2.734375 -7.03125 0.5 -4.828125 0.5 -2.515625 C 0.5 -0.875 1.671875 0.21875 3.203125 0.21875 C 4.0625 0.21875 4.828125 -0.171875 5.359375 -0.640625 C 6.28125 -1.453125 6.453125 -2.359375 6.453125 -2.390625 Z M 6.453125 -2.390625 "/>
</g>
<g id="glyph-1-0">
</g>
<g id="glyph-1-1">
<path d="M 3.296875 0 L 3.296875 -0.25 L 3.03125 -0.25 C 2.328125 -0.25 2.328125 -0.34375 2.328125 -0.578125 L 2.328125 -4.4375 C 2.328125 -4.625 2.328125 -4.625 2.125 -4.625 C 1.671875 -4.1875 1.046875 -4.1875 0.765625 -4.1875 L 0.765625 -3.9375 C 0.921875 -3.9375 1.390625 -3.9375 1.765625 -4.125 L 1.765625 -0.578125 C 1.765625 -0.34375 1.765625 -0.25 1.078125 -0.25 L 0.8125 -0.25 L 0.8125 0 L 2.046875 -0.03125 Z M 3.296875 0 "/>
</g>
<g id="glyph-1-2">
<path d="M 3.515625 -1.265625 L 3.28125 -1.265625 C 3.265625 -1.109375 3.1875 -0.703125 3.09375 -0.640625 C 3.046875 -0.59375 2.515625 -0.59375 2.40625 -0.59375 L 1.125 -0.59375 C 1.859375 -1.234375 2.109375 -1.4375 2.515625 -1.765625 C 3.03125 -2.171875 3.515625 -2.609375 3.515625 -3.265625 C 3.515625 -4.109375 2.78125 -4.625 1.890625 -4.625 C 1.03125 -4.625 0.4375 -4.015625 0.4375 -3.375 C 0.4375 -3.03125 0.734375 -2.984375 0.8125 -2.984375 C 0.96875 -2.984375 1.171875 -3.109375 1.171875 -3.359375 C 1.171875 -3.484375 1.125 -3.734375 0.765625 -3.734375 C 0.984375 -4.21875 1.453125 -4.375 1.78125 -4.375 C 2.484375 -4.375 2.84375 -3.828125 2.84375 -3.265625 C 2.84375 -2.65625 2.40625 -2.1875 2.1875 -1.9375 L 0.515625 -0.265625 C 0.4375 -0.203125 0.4375 -0.1875 0.4375 0 L 3.3125 0 Z M 3.515625 -1.265625 "/>
</g>
<g id="glyph-2-0">
</g>
<g id="glyph-2-1">
<path d="M 2.609375 -1 C 2.609375 -1.09375 2.515625 -1.09375 2.5 -1.09375 C 2.40625 -1.09375 2.40625 -1.078125 2.34375 -0.953125 C 2.15625 -0.515625 1.796875 -0.125 1.421875 -0.125 C 1.265625 -0.125 1.171875 -0.21875 1.171875 -0.46875 C 1.171875 -0.53125 1.203125 -0.6875 1.21875 -0.75 L 1.71875 -2.75 L 2.421875 -2.75 C 2.5625 -2.75 2.640625 -2.75 2.640625 -2.90625 C 2.640625 -3 2.5625 -3 2.4375 -3 L 1.78125 -3 L 2.03125 -4.03125 C 2.046875 -4.0625 2.0625 -4.109375 2.0625 -4.125 C 2.0625 -4.265625 1.953125 -4.359375 1.8125 -4.359375 C 1.640625 -4.359375 1.546875 -4.234375 1.484375 -4.0625 C 1.4375 -3.875 1.53125 -4.21875 1.21875 -3 L 0.515625 -3 C 0.390625 -3 0.296875 -3 0.296875 -2.84375 C 0.296875 -2.75 0.375 -2.75 0.5 -2.75 L 1.15625 -2.75 L 0.75 -1.109375 C 0.703125 -0.9375 0.640625 -0.6875 0.640625 -0.59375 C 0.640625 -0.1875 1 0.0625 1.390625 0.0625 C 2.171875 0.0625 2.609375 -0.90625 2.609375 -1 Z M 2.609375 -1 "/>
</g>
</g>
<clipPath id="clip-0">
<path clip-rule="nonzero" d="M 20 54 L 24 54 L 24 57.679688 L 20 57.679688 Z M 20 54 "/>
</clipPath>
<clipPath id="clip-1">
<path clip-rule="nonzero" d="M 9 43 L 36 43 L 36 57.679688 L 9 57.679688 Z M 9 43 "/>
</clipPath>
<clipPath id="clip-2">
<path clip-rule="nonzero" d="M 56 54 L 60 54 L 60 57.679688 L 56 57.679688 Z M 56 54 "/>
</clipPath>
<clipPath id="clip-3">
<path clip-rule="nonzero" d="M 45 43 L 72 43 L 72 57.679688 L 45 57.679688 Z M 45 43 "/>
</clipPath>
<clipPath id="clip-4">
<path clip-rule="nonzero" d="M 92 54 L 96 54 L 96 57.679688 L 92 57.679688 Z M 92 54 "/>
</clipPath>
<clipPath id="clip-5">
<path clip-rule="nonzero" d="M 81 43 L 108 43 L 108 57.679688 L 81 57.679688 Z M 81 43 "/>
</clipPath>
<clipPath id="clip-6">
<path clip-rule="nonzero" d="M 128 54 L 132 54 L 132 57.679688 L 128 57.679688 Z M 128 54 "/>
</clipPath>
<clipPath id="clip-7">
<path clip-rule="nonzero" d="M 117 43 L 144 43 L 144 57.679688 L 117 57.679688 Z M 117 43 "/>
</clipPath>
<clipPath id="clip-8">
<path clip-rule="nonzero" d="M 164 54 L 168 54 L 168 57.679688 L 164 57.679688 Z M 164 54 "/>
</clipPath>
<clipPath id="clip-9">
<path clip-rule="nonzero" d="M 153 43 L 180 43 L 180 57.679688 L 153 57.679688 Z M 153 43 "/>
</clipPath>
</defs>
<path fill-rule="nonzero" fill="rgb(0%, 0%, 0%)" fill-opacity="1" stroke-width="0.8" stroke-linecap="butt" stroke-linejoin="miter" stroke="rgb(0%, 0%, 0%)" stroke-opacity="1" stroke-miterlimit="10" d="M 1.441812 0.00015625 C 1.441812 0.797031 0.793375 1.441563 0.00040625 1.441563 C -0.796469 1.441563 -1.441 0.797031 -1.441 0.00015625 C -1.441 -0.796719 -0.796469 -1.44125 0.00040625 -1.44125 C 0.793375 -1.44125 1.441812 -0.796719 1.441812 0.00015625 Z M 1.441812 0.00015625 " transform="matrix(1, 0, 0, -1, 22.316, 1.84)"/>
<g clip-path="url(#clip-0)">
<path fill-rule="nonzero" fill="rgb(0%, 0%, 0%)" fill-opacity="1" d="M 23.757812 55.839844 C 23.757812 55.046875 23.109375 54.402344 22.316406 54.402344 C 21.519531 54.402344 20.875 55.046875 20.875 55.839844 C 20.875 56.636719 21.519531 57.28125 22.316406 57.28125 C 23.109375 57.28125 23.757812 56.636719 23.757812 55.839844 Z M 23.757812 55.839844 "/>
</g>
<g clip-path="url(#clip-1)">
<path fill="none" stroke-width="0.8" stroke-linecap="butt" stroke-linejoin="miter" stroke="rgb(0%, 0%, 0%)" stroke-opacity="1" stroke-miterlimit="10" d="M 1.441812 -53.999844 C 1.441812 -53.206875 0.793375 -52.562344 0.00040625 -52.562344 C -0.796469 -52.562344 -1.441 -53.206875 -1.441 -53.999844 C -1.441 -54.796719 -0.796469 -55.44125 0.00040625 -55.44125 C 0.793375 -55.44125 1.441812 -54.796719 1.441812 -53.999844 Z M 1.441812 -53.999844 " transform="matrix(1, 0, 0, -1, 22.316, 1.84)"/>
</g>
<path fill-rule="nonzero" fill="rgb(0%, 0%, 0%)" fill-opacity="1" stroke-width="0.12" stroke-linecap="butt" stroke-linejoin="miter" stroke="rgb(0%, 0%, 0%)" stroke-opacity="1" stroke-miterlimit="10" d="M -6.780844 -37.800625 L -4.980063 -44.999844 L -3.183188 -37.800625 Z M -6.780844 -37.800625 " transform="matrix(1, 0, 0, -1, 22.316, 1.84)"/>
<path fill="none" stroke-width="0.8" stroke-linecap="butt" stroke-linejoin="miter" stroke="rgb(0%, 0%, 0%)" stroke-opacity="1" stroke-miterlimit="10" d="M -4.980063 -8.999844 L -4.980063 -43.351406 " transform="matrix(1, 0, 0, -1, 22.316, 1.84)"/>
<g fill="rgb(0%, 0%, 0%)" fill-opacity="1">
<use xlink:href="#glyph-0-1" x="3.321" y="30.174"/>
</g>
<path fill="none" stroke-width="0.398" stroke-linecap="butt" stroke-linejoin="miter" stroke="rgb(0%, 0%, 0%)" stroke-opacity="1" stroke-miterlimit="10" d="M -0.0006875 0.00159375 L 8.026656 0.00159375 " transform="matrix(1, 0, 0, -1, 3.321, 31.568)"/>
<g fill="rgb(0%, 0%, 0%)" fill-opacity="1">
<use xlink:href="#glyph-1-1" x="11.346" y="32.664"/>
</g>
<path fill="none" stroke-width="0.8" stroke-linecap="butt" stroke-linejoin="miter" stroke="rgb(0%, 0%, 0%)" stroke-opacity="1" stroke-miterlimit="10" d="M 0.00040625 0.00015625 L 36.000406 0.00015625 " transform="matrix(1, 0, 0, -1, 22.316, 1.84)"/>
<path fill-rule="nonzero" fill="rgb(0%, 0%, 0%)" fill-opacity="1" stroke-width="0.8" stroke-linecap="butt" stroke-linejoin="miter" stroke="rgb(0%, 0%, 0%)" stroke-opacity="1" stroke-miterlimit="10" d="M 37.441812 0.00015625 C 37.441812 0.797031 36.797281 1.441563 36.000406 1.441563 C 35.203531 1.441563 34.559 0.797031 34.559 0.00015625 C 34.559 -0.796719 35.203531 -1.44125 36.000406 -1.44125 C 36.797281 -1.44125 37.441812 -0.796719 37.441812 0.00015625 Z M 37.441812 0.00015625 " transform="matrix(1, 0, 0, -1, 22.316, 1.84)"/>
<path fill="none" stroke-width="0.8" stroke-linecap="butt" stroke-linejoin="miter" stroke="rgb(0%, 0%, 0%)" stroke-opacity="1" stroke-miterlimit="10" d="M 36.000406 0.00015625 L 36.000406 -17.999844 " transform="matrix(1, 0, 0, -1, 22.316, 1.84)"/>
<path fill="none" stroke-width="0.8" stroke-linecap="butt" stroke-linejoin="miter" stroke="rgb(0%, 0%, 0%)" stroke-opacity="1" stroke-miterlimit="10" d="M 36.000406 -35.999844 L 39.601969 -35.999844 L 39.601969 -17.999844 L 32.398844 -17.999844 L 32.398844 -35.999844 L 36.000406 -35.999844 " transform="matrix(1, 0, 0, -1, 22.316, 1.84)"/>
<path fill="none" stroke-width="0.8" stroke-linecap="butt" stroke-linejoin="miter" stroke="rgb(0%, 0%, 0%)" stroke-opacity="1" stroke-miterlimit="10" d="M 36.000406 -35.999844 L 36.000406 -53.999844 " transform="matrix(1, 0, 0, -1, 22.316, 1.84)"/>
<g fill="rgb(0%, 0%, 0%)" fill-opacity="1">
<use xlink:href="#glyph-0-2" x="63.436" y="31.497"/>
</g>
<g fill="rgb(0%, 0%, 0%)" fill-opacity="1">
<use xlink:href="#glyph-1-1" x="71.001" y="32.991"/>
</g>
<g clip-path="url(#clip-2)">
<path fill-rule="nonzero" fill="rgb(0%, 0%, 0%)" fill-opacity="1" d="M 59.757812 55.839844 C 59.757812 55.046875 59.113281 54.402344 58.316406 54.402344 C 57.519531 54.402344 56.875 55.046875 56.875 55.839844 C 56.875 56.636719 57.519531 57.28125 58.316406 57.28125 C 59.113281 57.28125 59.757812 56.636719 59.757812 55.839844 Z M 59.757812 55.839844 "/>
</g>
<g clip-path="url(#clip-3)">
<path fill="none" stroke-width="0.8" stroke-linecap="butt" stroke-linejoin="miter" stroke="rgb(0%, 0%, 0%)" stroke-opacity="1" stroke-miterlimit="10" d="M 37.441812 -53.999844 C 37.441812 -53.206875 36.797281 -52.562344 36.000406 -52.562344 C 35.203531 -52.562344 34.559 -53.206875 34.559 -53.999844 C 34.559 -54.796719 35.203531 -55.44125 36.000406 -55.44125 C 36.797281 -55.44125 37.441812 -54.796719 37.441812 -53.999844 Z M 37.441812 -53.999844 " transform="matrix(1, 0, 0, -1, 22.316, 1.84)"/>
</g>
<path fill="none" stroke-width="0.8" stroke-linecap="butt" stroke-linejoin="miter" stroke="rgb(0%, 0%, 0%)" stroke-opacity="1" stroke-miterlimit="10" d="M 36.000406 0.00015625 L 72.000406 0.00015625 " transform="matrix(1, 0, 0, -1, 22.316, 1.84)"/>
<path fill-rule="nonzero" fill="rgb(0%, 0%, 0%)" fill-opacity="1" stroke-width="0.8" stroke-linecap="butt" stroke-linejoin="miter" stroke="rgb(0%, 0%, 0%)" stroke-opacity="1" stroke-miterlimit="10" d="M 73.441812 0.00015625 C 73.441812 0.797031 72.797281 1.441563 72.000406 1.441563 C 71.203531 1.441563 70.559 0.797031 70.559 0.00015625 C 70.559 -0.796719 71.203531 -1.44125 72.000406 -1.44125 C 72.797281 -1.44125 73.441812 -0.796719 73.441812 0.00015625 Z M 73.441812 0.00015625 " transform="matrix(1, 0, 0, -1, 22.316, 1.84)"/>
<path fill="none" stroke-width="0.8" stroke-linecap="butt" stroke-linejoin="miter" stroke="rgb(0%, 0%, 0%)" stroke-opacity="1" stroke-miterlimit="10" d="M 72.000406 0.00015625 L 72.000406 -17.999844 " transform="matrix(1, 0, 0, -1, 22.316, 1.84)"/>
<path fill="none" stroke-width="0.8" stroke-linecap="butt" stroke-linejoin="miter" stroke="rgb(0%, 0%, 0%)" stroke-opacity="1" stroke-miterlimit="10" d="M 72.000406 -17.999844 L 71.601969 -17.999844 " transform="matrix(1, 0, 0, -1, 22.316, 1.84)"/>
<path fill="none" stroke-width="0.8" stroke-linecap="butt" stroke-linejoin="miter" stroke="rgb(0%, 0%, 0%)" stroke-opacity="1" stroke-miterlimit="10" d="M 72.000406 -17.999844 C 72.805094 -17.999844 73.547281 -18.429531 73.949625 -19.124844 C 74.351969 -19.820156 74.351969 -20.679531 73.949625 -21.374844 C 73.547281 -22.070156 72.805094 -22.499844 72.000406 -22.499844 " transform="matrix(1, 0, 0, -1, 22.316, 1.84)"/>
<path fill="none" stroke-width="0.8" stroke-linecap="butt" stroke-linejoin="miter" stroke="rgb(0%, 0%, 0%)" stroke-opacity="1" stroke-miterlimit="10" d="M 72.000406 -22.499844 L 71.601969 -22.499844 " transform="matrix(1, 0, 0, -1, 22.316, 1.84)"/>
<path fill="none" stroke-width="0.8" stroke-linecap="butt" stroke-linejoin="miter" stroke="rgb(0%, 0%, 0%)" stroke-opacity="1" stroke-miterlimit="10" d="M 72.000406 -22.499844 C 72.805094 -22.499844 73.547281 -22.929531 73.949625 -23.624844 C 74.351969 -24.320156 74.351969 -25.179531 73.949625 -25.874844 C 73.547281 -26.570156 72.805094 -26.999844 72.000406 -26.999844 " transform="matrix(1, 0, 0, -1, 22.316, 1.84)"/>
<path fill="none" stroke-width="0.8" stroke-linecap="butt" stroke-linejoin="miter" stroke="rgb(0%, 0%, 0%)" stroke-opacity="1" stroke-miterlimit="10" d="M 72.000406 -26.999844 L 71.601969 -26.999844 " transform="matrix(1, 0, 0, -1, 22.316, 1.84)"/>
<path fill="none" stroke-width="0.8" stroke-linecap="butt" stroke-linejoin="miter" stroke="rgb(0%, 0%, 0%)" stroke-opacity="1" stroke-miterlimit="10" d="M 72.000406 -26.999844 C 72.805094 -26.999844 73.547281 -27.429531 73.949625 -28.124844 C 74.351969 -28.820156 74.351969 -29.679531 73.949625 -30.374844 C 73.547281 -31.070156 72.805094 -31.499844 72.000406 -31.499844 " transform="matrix(1, 0, 0, -1, 22.316, 1.84)"/>
<path fill="none" stroke-width="0.8" stroke-linecap="butt" stroke-linejoin="miter" stroke="rgb(0%, 0%, 0%)" stroke-opacity="1" stroke-miterlimit="10" d="M 72.000406 -31.499844 L 71.601969 -31.499844 " transform="matrix(1, 0, 0, -1, 22.316, 1.84)"/>
<path fill="none" stroke-width="0.8" stroke-linecap="butt" stroke-linejoin="miter" stroke="rgb(0%, 0%, 0%)" stroke-opacity="1" stroke-miterlimit="10" d="M 72.000406 -31.499844 C 72.805094 -31.499844 73.547281 -31.929531 73.949625 -32.624844 C 74.351969 -33.320156 74.351969 -34.179531 73.949625 -34.874844 C 73.547281 -35.570156 72.805094 -35.999844 72.000406 -35.999844 " transform="matrix(1, 0, 0, -1, 22.316, 1.84)"/>
<path fill="none" stroke-width="0.8" stroke-linecap="butt" stroke-linejoin="miter" stroke="rgb(0%, 0%, 0%)" stroke-opacity="1" stroke-miterlimit="10" d="M 72.000406 -35.999844 L 71.601969 -35.999844 " transform="matrix(1, 0, 0, -1, 22.316, 1.84)"/>
<path fill="none" stroke-width="0.8" stroke-linecap="butt" stroke-linejoin="miter" stroke="rgb(0%, 0%, 0%)" stroke-opacity="1" stroke-miterlimit="10" d="M 72.000406 -35.999844 L 72.000406 -53.999844 " transform="matrix(1, 0, 0, -1, 22.316, 1.84)"/>
<g fill="rgb(0%, 0%, 0%)" fill-opacity="1">
<use xlink:href="#glyph-0-3" x="98.086" y="31.497"/>
</g>
<g fill="rgb(0%, 0%, 0%)" fill-opacity="1">
<use xlink:href="#glyph-1-1" x="104.866" y="32.991"/>
</g>
<g clip-path="url(#clip-4)">
<path fill-rule="nonzero" fill="rgb(0%, 0%, 0%)" fill-opacity="1" d="M 95.757812 55.839844 C 95.757812 55.046875 95.113281 54.402344 94.316406 54.402344 C 93.519531 54.402344 92.875 55.046875 92.875 55.839844 C 92.875 56.636719 93.519531 57.28125 94.316406 57.28125 C 95.113281 57.28125 95.757812 56.636719 95.757812 55.839844 Z M 95.757812 55.839844 "/>
</g>
<g clip-path="url(#clip-5)">
<path fill="none" stroke-width="0.8" stroke-linecap="butt" stroke-linejoin="miter" stroke="rgb(0%, 0%, 0%)" stroke-opacity="1" stroke-miterlimit="10" d="M 73.441812 -53.999844 C 73.441812 -53.206875 72.797281 -52.562344 72.000406 -52.562344 C 71.203531 -52.562344 70.559 -53.206875 70.559 -53.999844 C 70.559 -54.796719 71.203531 -55.44125 72.000406 -55.44125 C 72.797281 -55.44125 73.441812 -54.796719 73.441812 -53.999844 Z M 73.441812 -53.999844 " transform="matrix(1, 0, 0, -1, 22.316, 1.84)"/>
</g>
<path fill="none" stroke-width="0.8" stroke-linecap="butt" stroke-linejoin="miter" stroke="rgb(0%, 0%, 0%)" stroke-opacity="1" stroke-miterlimit="10" d="M 72.000406 0.00015625 L 108.000406 0.00015625 " transform="matrix(1, 0, 0, -1, 22.316, 1.84)"/>
<path fill-rule="nonzero" fill="rgb(0%, 0%, 0%)" fill-opacity="1" stroke-width="0.8" stroke-linecap="butt" stroke-linejoin="miter" stroke="rgb(0%, 0%, 0%)" stroke-opacity="1" stroke-miterlimit="10" d="M 109.441812 0.00015625 C 109.441812 0.797031 108.797281 1.441563 108.000406 1.441563 C 107.207437 1.441563 106.562906 0.797031 106.562906 0.00015625 C 106.562906 -0.796719 107.207437 -1.44125 108.000406 -1.44125 C 108.797281 -1.44125 109.441812 -0.796719 109.441812 0.00015625 Z M 109.441812 0.00015625 " transform="matrix(1, 0, 0, -1, 22.316, 1.84)"/>
<path fill="none" stroke-width="0.8" stroke-linecap="butt" stroke-linejoin="miter" stroke="rgb(0%, 0%, 0%)" stroke-opacity="1" stroke-miterlimit="10" d="M 108.000406 0.00015625 L 108.000406 -25.199062 " transform="matrix(1, 0, 0, -1, 22.316, 1.84)"/>
<path fill="none" stroke-width="0.8" stroke-linecap="butt" stroke-linejoin="miter" stroke="rgb(0%, 0%, 0%)" stroke-opacity="1" stroke-miterlimit="10" d="M 102.000406 -25.199062 L 114.000406 -25.199062 " transform="matrix(1, 0, 0, -1, 22.316, 1.84)"/>
<path fill="none" stroke-width="0.8" stroke-linecap="butt" stroke-linejoin="miter" stroke="rgb(0%, 0%, 0%)" stroke-opacity="1" stroke-miterlimit="10" d="M 102.000406 -28.800625 L 114.000406 -28.800625 " transform="matrix(1, 0, 0, -1, 22.316, 1.84)"/>
<path fill="none" stroke-width="0.8" stroke-linecap="butt" stroke-linejoin="miter" stroke="rgb(0%, 0%, 0%)" stroke-opacity="1" stroke-miterlimit="10" d="M 108.000406 -28.800625 L 108.000406 -53.999844 " transform="matrix(1, 0, 0, -1, 22.316, 1.84)"/>
<g fill="rgb(0%, 0%, 0%)" fill-opacity="1">
<use xlink:href="#glyph-0-4" x="137.835" y="31.497"/>
</g>
<g fill="rgb(0%, 0%, 0%)" fill-opacity="1">
<use xlink:href="#glyph-1-2" x="144.956" y="32.991"/>
</g>
<g clip-path="url(#clip-6)">
<path fill-rule="nonzero" fill="rgb(0%, 0%, 0%)" fill-opacity="1" d="M 131.757812 55.839844 C 131.757812 55.046875 131.113281 54.402344 130.316406 54.402344 C 129.523438 54.402344 128.878906 55.046875 128.878906 55.839844 C 128.878906 56.636719 129.523438 57.28125 130.316406 57.28125 C 131.113281 57.28125 131.757812 56.636719 131.757812 55.839844 Z M 131.757812 55.839844 "/>
</g>
<g clip-path="url(#clip-7)">
<path fill="none" stroke-width="0.8" stroke-linecap="butt" stroke-linejoin="miter" stroke="rgb(0%, 0%, 0%)" stroke-opacity="1" stroke-miterlimit="10" d="M 109.441812 -53.999844 C 109.441812 -53.206875 108.797281 -52.562344 108.000406 -52.562344 C 107.207437 -52.562344 106.562906 -53.206875 106.562906 -53.999844 C 106.562906 -54.796719 107.207437 -55.44125 108.000406 -55.44125 C 108.797281 -55.44125 109.441812 -54.796719 109.441812 -53.999844 Z M 109.441812 -53.999844 " transform="matrix(1, 0, 0, -1, 22.316, 1.84)"/>
</g>
<path fill="none" stroke-width="0.8" stroke-linecap="butt" stroke-linejoin="miter" stroke="rgb(0%, 0%, 0%)" stroke-opacity="1" stroke-miterlimit="10" d="M 108.000406 0.00015625 L 144.000406 0.00015625 " transform="matrix(1, 0, 0, -1, 22.316, 1.84)"/>
<path fill-rule="nonzero" fill="rgb(0%, 0%, 0%)" fill-opacity="1" stroke-width="0.8" stroke-linecap="butt" stroke-linejoin="miter" stroke="rgb(0%, 0%, 0%)" stroke-opacity="1" stroke-miterlimit="10" d="M 145.441812 0.00015625 C 145.441812 0.797031 144.797281 1.441563 144.000406 1.441563 C 143.207437 1.441563 142.562906 0.797031 142.562906 0.00015625 C 142.562906 -0.796719 143.207437 -1.44125 144.000406 -1.44125 C 144.797281 -1.44125 145.441812 -0.796719 145.441812 0.00015625 Z M 145.441812 0.00015625 " transform="matrix(1, 0, 0, -1, 22.316, 1.84)"/>
<path fill="none" stroke-width="0.8" stroke-linecap="butt" stroke-linejoin="miter" stroke="rgb(0%, 0%, 0%)" stroke-opacity="1" stroke-miterlimit="10" d="M 144.000406 0.00015625 L 144.000406 -17.999844 " transform="matrix(1, 0, 0, -1, 22.316, 1.84)"/>
<path fill="none" stroke-width="0.8" stroke-linecap="butt" stroke-linejoin="miter" stroke="rgb(0%, 0%, 0%)" stroke-opacity="1" stroke-miterlimit="10" d="M 144.000406 -35.999844 L 147.601969 -35.999844 L 147.601969 -17.999844 L 140.40275 -17.999844 L 140.40275 -35.999844 L 144.000406 -35.999844 " transform="matrix(1, 0, 0, -1, 22.316, 1.84)"/>
<path fill="none" stroke-width="0.8" stroke-linecap="butt" stroke-linejoin="miter" stroke="rgb(0%, 0%, 0%)" stroke-opacity="1" stroke-miterlimit="10" d="M 144.000406 -35.999844 L 144.000406 -53.999844 " transform="matrix(1, 0, 0, -1, 22.316, 1.84)"/>
<g fill="rgb(0%, 0%, 0%)" fill-opacity="1">
<use xlink:href="#glyph-0-2" x="171.436" y="31.497"/>
</g>
<g fill="rgb(0%, 0%, 0%)" fill-opacity="1">
<use xlink:href="#glyph-1-2" x="179" y="32.991"/>
</g>
<g fill="rgb(0%, 0%, 0%)" fill-opacity="1">
<use xlink:href="#glyph-2-1" x="182.970882" y="32.991"/>
</g>
<g clip-path="url(#clip-8)">
<path fill-rule="nonzero" fill="rgb(0%, 0%, 0%)" fill-opacity="1" d="M 167.757812 55.839844 C 167.757812 55.046875 167.113281 54.402344 166.316406 54.402344 C 165.523438 54.402344 164.878906 55.046875 164.878906 55.839844 C 164.878906 56.636719 165.523438 57.28125 166.316406 57.28125 C 167.113281 57.28125 167.757812 56.636719 167.757812 55.839844 Z M 167.757812 55.839844 "/>
</g>
<g clip-path="url(#clip-9)">
<path fill="none" stroke-width="0.8" stroke-linecap="butt" stroke-linejoin="miter" stroke="rgb(0%, 0%, 0%)" stroke-opacity="1" stroke-miterlimit="10" d="M 145.441812 -53.999844 C 145.441812 -53.206875 144.797281 -52.562344 144.000406 -52.562344 C 143.207437 -52.562344 142.562906 -53.206875 142.562906 -53.999844 C 142.562906 -54.796719 143.207437 -55.44125 144.000406 -55.44125 C 144.797281 -55.44125 145.441812 -54.796719 145.441812 -53.999844 Z M 145.441812 -53.999844 " transform="matrix(1, 0, 0, -1, 22.316, 1.84)"/>
</g>
<path fill="none" stroke-width="0.8" stroke-linecap="butt" stroke-linejoin="miter" stroke="rgb(0%, 0%, 0%)" stroke-opacity="1" stroke-miterlimit="10" d="M 144.000406 0.00015625 L 180.000406 0.00015625 " transform="matrix(1, 0, 0, -1, 22.316, 1.84)"/>
<path fill="none" stroke-width="0.8" stroke-linecap="butt" stroke-linejoin="miter" stroke="rgb(0%, 0%, 0%)" stroke-opacity="1" stroke-miterlimit="10" d="M 180.000406 0.00015625 L 180.000406 -25.199062 " transform="matrix(1, 0, 0, -1, 22.316, 1.84)"/>
<path fill="none" stroke-width="0.8" stroke-linecap="butt" stroke-linejoin="miter" stroke="rgb(0%, 0%, 0%)" stroke-opacity="1" stroke-miterlimit="10" d="M 174.000406 -25.199062 L 186.000406 -25.199062 " transform="matrix(1, 0, 0, -1, 22.316, 1.84)"/>
<path fill="none" stroke-width="0.8" stroke-linecap="butt" stroke-linejoin="miter" stroke="rgb(0%, 0%, 0%)" stroke-opacity="1" stroke-miterlimit="10" d="M 174.000406 -28.800625 L 186.000406 -28.800625 " transform="matrix(1, 0, 0, -1, 22.316, 1.84)"/>
<path fill="none" stroke-width="0.8" stroke-linecap="butt" stroke-linejoin="miter" stroke="rgb(0%, 0%, 0%)" stroke-opacity="1" stroke-miterlimit="10" d="M 180.000406 -28.800625 L 180.000406 -53.999844 " transform="matrix(1, 0, 0, -1, 22.316, 1.84)"/>
<g fill="rgb(0%, 0%, 0%)" fill-opacity="1">
<use xlink:href="#glyph-0-4" x="209.835" y="31.497"/>
</g>
<g fill="rgb(0%, 0%, 0%)" fill-opacity="1">
<use xlink:href="#glyph-1-2" x="216.955" y="32.991"/>
</g>
<g fill="rgb(0%, 0%, 0%)" fill-opacity="1">
<use xlink:href="#glyph-2-1" x="220.925882" y="32.991"/>
</g>
<path fill="none" stroke-width="0.8" stroke-linecap="butt" stroke-linejoin="miter" stroke="rgb(0%, 0%, 0%)" stroke-opacity="1" stroke-miterlimit="10" d="M 180.000406 -53.999844 L 0.00040625 -53.999844 " transform="matrix(1, 0, 0, -1, 22.316, 1.84)"/>
</svg>
